<svg width="18px" height="18px" viewBox="0 0 18 18" fill="none" xmlns="http://www.w3.org/2000/svg"><path d="M12.375 16.688H5.625C5.484 16.688 5.349 16.636 5.245 16.542C5.141 16.447 5.076 16.317 5.062 16.178L3.937 4.178C3.93 4.1 3.939 4.021 3.965 3.947C3.991 3.873 4.033 3.806 4.087 3.75C4.139 3.691 4.202 3.644 4.273 3.612C4.345 3.579 4.422 3.563 4.5 3.563H13.5C13.579 3.563 13.657 3.58 13.73 3.613C13.802 3.645 13.867 3.692 13.92 3.75C13.972 3.807 14.012 3.875 14.037 3.949C14.061 4.022 14.07 4.1 14.063 4.178L12.938 16.178C12.924 16.317 12.859 16.447 12.755 16.542C12.651 16.636 12.516 16.688 12.375 16.688ZM6.135 15.563H11.865L12.885 4.688H5.115L6.135 15.563Z" fill="black"/><path d="M14.25 4.688H3.75C3.601 4.688 3.458 4.628 3.352 4.523C3.247 4.417 3.188 4.274 3.188 4.125C3.188 3.976 3.247 3.833 3.352 3.727C3.458 3.622 3.601 3.563 3.75 3.563H14.25C14.399 3.563 14.542 3.622 14.648 3.727C14.753 3.833 14.813 3.976 14.813 4.125C14.813 4.274 14.753 4.417 14.648 4.523C14.542 4.628 14.399 4.688 14.25 4.688Z" fill="black"/><path d="M10.875 2.438H7.125C6.976 2.438 6.833 2.378 6.727 2.273C6.622 2.167 6.563 2.024 6.563 1.875C6.563 1.726 6.622 1.583 6.727 1.477C6.833 1.372 6.976 1.313 7.125 1.313H10.875C11.024 1.313 11.167 1.372 11.273 1.477C11.378 1.583 11.438 1.726 11.438 1.875C11.438 2.024 11.378 2.167 11.273 2.273C11.167 2.378 11.024 2.438 10.875 2.438Z" fill="black"/><path d="M7.688 13.102C7.539 13.101 7.397 13.041 7.292 12.936C7.187 12.831 7.127 12.689 7.125 12.54V7.71C7.125 7.561 7.184 7.418 7.29 7.312C7.395 7.207 7.538 7.147 7.688 7.147C7.837 7.147 7.98 7.207 8.085 7.312C8.191 7.418 8.25 7.561 8.25 7.71V12.54C8.248 12.689 8.188 12.831 8.083 12.936C7.978 13.041 7.836 13.101 7.688 13.102Z" fill="black"/><path d="M10.313 13.102C10.164 13.101 10.022 13.041 9.917 12.936C9.812 12.831 9.752 12.689 9.75 12.54V7.71C9.75 7.561 9.809 7.418 9.915 7.312C10.02 7.207 10.163 7.147 10.313 7.147C10.462 7.147 10.605 7.207 10.71 7.312C10.816 7.418 10.875 7.561 10.875 7.71V12.54C10.873 12.689 10.813 12.831 10.708 12.936C10.603 13.041 10.461 13.101 10.313 13.102Z" fill="black"/></svg>