<svg width="20px" height="20px" viewBox="0 -1.111 20 20" xmlns="http://www.w3.org/2000/svg"><path d="M13.979 2.889l3.132 3.132c0.132 0.132 0.132 0.347 0 0.479L9.527 14.083l-3.223 0.357c-0.431 0.048 -0.795 -0.316 -0.747 -0.747l0.357 -3.223L13.5 2.889c0.132 -0.132 0.347 -0.132 0.479 0zm5.625 -0.795l-1.694 -1.694c-0.528 -0.528 -1.385 -0.528 -1.917 0l-1.229 1.229c-0.132 0.132 -0.132 0.347 0 0.479l3.132 3.132c0.132 0.132 0.347 0.132 0.479 0l1.229 -1.229c0.528 -0.531 0.528 -1.389 0 -1.917zM13.333 12.021V15.556H2.223V4.444h7.979c0.111 0 0.215 -0.045 0.295 -0.122l1.389 -1.389c0.264 -0.264 0.077 -0.712 -0.295 -0.712H1.667C0.747 2.223 0 2.969 0 3.889v12.223c0 0.92 0.747 1.667 1.667 1.667h12.223c0.92 0 1.667 -0.747 1.667 -1.667V10.632c0 -0.372 -0.448 -0.556 -0.712 -0.295l-1.389 1.389c-0.077 0.08 -0.122 0.184 -0.122 0.295z"/></svg>